<svg width="1024" height="358" viewBox="0 0 1024 358" fill="none" xmlns="http://www.w3.org/2000/svg">
<g clip-path="url(#clip0)">
<rect width="1024" height="358" fill="#092F42"/>
<rect x="758.666" y="291.588" width="191" height="55" rx="27.5" transform="rotate(39.5715 758.666 291.588)" fill="#99CC33"/>
<path d="M332.211 167H326.305V151.836H311.047V167H305.117V132.875H311.047V147.078H326.305V132.875H332.211V167ZM349.55 167H343.855V141.641H349.55V167ZM343.503 135.055C343.503 134.18 343.777 133.453 344.323 132.875C344.886 132.297 345.683 132.008 346.714 132.008C347.745 132.008 348.542 132.297 349.105 132.875C349.667 133.453 349.948 134.18 349.948 135.055C349.948 135.914 349.667 136.633 349.105 137.211C348.542 137.773 347.745 138.055 346.714 138.055C345.683 138.055 344.886 137.773 344.323 137.211C343.777 136.633 343.503 135.914 343.503 135.055ZM361.381 174.688L358.311 172.859C359.217 171.438 359.834 170.195 360.163 169.133C360.506 168.086 360.686 167.016 360.702 165.922V161.492H365.834L365.811 165.594C365.795 167.25 365.373 168.906 364.545 170.562C363.733 172.234 362.678 173.609 361.381 174.688ZM399.481 167H393.575V132.875H399.481V167ZM412.203 143L409.297 141.195C410.703 139.148 411.43 136.984 411.477 134.703V131H416.469V134.234C416.469 135.844 416.055 137.469 415.227 139.109C414.414 140.734 413.406 142.031 412.203 143ZM431.113 141.641L431.277 144.289C433.058 142.211 435.495 141.172 438.589 141.172C441.98 141.172 444.3 142.469 445.55 145.062C447.394 142.469 449.988 141.172 453.331 141.172C456.128 141.172 458.206 141.945 459.566 143.492C460.941 145.039 461.644 147.32 461.675 150.336V167H455.98V150.5C455.98 148.891 455.628 147.711 454.925 146.961C454.222 146.211 453.058 145.836 451.433 145.836C450.136 145.836 449.073 146.188 448.245 146.891C447.433 147.578 446.863 148.484 446.534 149.609L446.558 167H440.863V150.312C440.784 147.328 439.261 145.836 436.292 145.836C434.011 145.836 432.394 146.766 431.441 148.625V167H425.745V141.641H431.113ZM495.556 162.266H511.048V167H489.627V132.875H495.556V162.266ZM531.013 167.469C527.403 167.469 524.473 166.336 522.223 164.07C519.989 161.789 518.872 158.758 518.872 154.977V154.273C518.872 151.742 519.356 149.484 520.325 147.5C521.309 145.5 522.684 143.945 524.45 142.836C526.216 141.727 528.184 141.172 530.356 141.172C533.809 141.172 536.473 142.273 538.348 144.477C540.239 146.68 541.184 149.797 541.184 153.828V156.125H524.614C524.786 158.219 525.481 159.875 526.7 161.094C527.934 162.312 529.481 162.922 531.341 162.922C533.95 162.922 536.075 161.867 537.716 159.758L540.786 162.688C539.77 164.203 538.411 165.383 536.708 166.227C535.02 167.055 533.122 167.469 531.013 167.469ZM530.333 145.742C528.77 145.742 527.505 146.289 526.536 147.383C525.583 148.477 524.973 150 524.708 151.953H535.559V151.531C535.434 149.625 534.927 148.188 534.036 147.219C533.145 146.234 531.911 145.742 530.333 145.742ZM549.359 154.086C549.359 151.602 549.852 149.367 550.836 147.383C551.82 145.383 553.203 143.852 554.984 142.789C556.766 141.711 558.812 141.172 561.125 141.172C564.547 141.172 567.32 142.273 569.445 144.477C571.586 146.68 572.742 149.602 572.914 153.242L572.938 154.578C572.938 157.078 572.453 159.312 571.484 161.281C570.531 163.25 569.156 164.773 567.359 165.852C565.578 166.93 563.516 167.469 561.172 167.469C557.594 167.469 554.727 166.281 552.57 163.906C550.43 161.516 549.359 158.336 549.359 154.367V154.086ZM555.055 154.578C555.055 157.188 555.594 159.234 556.672 160.719C557.75 162.188 559.25 162.922 561.172 162.922C563.094 162.922 564.586 162.172 565.648 160.672C566.727 159.172 567.266 156.977 567.266 154.086C567.266 151.523 566.711 149.492 565.602 147.992C564.508 146.492 563.016 145.742 561.125 145.742C559.266 145.742 557.789 146.484 556.695 147.969C555.602 149.438 555.055 151.641 555.055 154.578ZM587.839 141.641L588.003 144.57C589.878 142.305 592.339 141.172 595.386 141.172C600.667 141.172 603.355 144.195 603.448 150.242V167H597.753V150.57C597.753 148.961 597.402 147.773 596.698 147.008C596.011 146.227 594.878 145.836 593.3 145.836C591.003 145.836 589.292 146.875 588.167 148.953V167H582.472V141.641H587.839ZM629.225 167C628.975 166.516 628.756 165.727 628.569 164.633C626.756 166.523 624.538 167.469 621.913 167.469C619.366 167.469 617.288 166.742 615.678 165.289C614.069 163.836 613.264 162.039 613.264 159.898C613.264 157.195 614.264 155.125 616.264 153.688C618.28 152.234 621.155 151.508 624.889 151.508H628.381V149.844C628.381 148.531 628.014 147.484 627.28 146.703C626.545 145.906 625.428 145.508 623.928 145.508C622.631 145.508 621.569 145.836 620.741 146.492C619.913 147.133 619.498 147.953 619.498 148.953H613.803C613.803 147.562 614.264 146.266 615.186 145.062C616.108 143.844 617.358 142.891 618.936 142.203C620.53 141.516 622.303 141.172 624.256 141.172C627.225 141.172 629.592 141.922 631.358 143.422C633.123 144.906 634.03 147 634.077 149.703V161.141C634.077 163.422 634.397 165.242 635.038 166.602V167H629.225ZM622.967 162.898C624.092 162.898 625.147 162.625 626.131 162.078C627.131 161.531 627.881 160.797 628.381 159.875V155.094H625.311C623.202 155.094 621.616 155.461 620.553 156.195C619.491 156.93 618.959 157.969 618.959 159.312C618.959 160.406 619.319 161.281 620.038 161.938C620.772 162.578 621.748 162.898 622.967 162.898ZM658.119 146.844C657.369 146.719 656.595 146.656 655.798 146.656C653.189 146.656 651.431 147.656 650.525 149.656V167H644.83V141.641H650.267L650.408 144.477C651.783 142.273 653.689 141.172 656.127 141.172C656.939 141.172 657.611 141.281 658.142 141.5L658.119 146.844ZM664.981 154.133C664.981 150.227 665.888 147.094 667.7 144.734C669.513 142.359 671.942 141.172 674.989 141.172C677.677 141.172 679.848 142.109 681.505 143.984V131H687.2V167H682.044L681.763 164.375C680.059 166.438 677.786 167.469 674.942 167.469C671.973 167.469 669.567 166.273 667.723 163.883C665.895 161.492 664.981 158.242 664.981 154.133ZM670.677 154.625C670.677 157.203 671.169 159.219 672.153 160.672C673.153 162.109 674.567 162.828 676.395 162.828C678.723 162.828 680.427 161.789 681.505 159.711V148.883C680.458 146.852 678.77 145.836 676.442 145.836C674.598 145.836 673.177 146.57 672.177 148.039C671.177 149.492 670.677 151.688 670.677 154.625ZM696.875 154.086C696.875 151.602 697.367 149.367 698.352 147.383C699.336 145.383 700.719 143.852 702.5 142.789C704.281 141.711 706.328 141.172 708.641 141.172C712.062 141.172 714.836 142.273 716.961 144.477C719.102 146.68 720.258 149.602 720.43 153.242L720.453 154.578C720.453 157.078 719.969 159.312 719 161.281C718.047 163.25 716.672 164.773 714.875 165.852C713.094 166.93 711.031 167.469 708.688 167.469C705.109 167.469 702.242 166.281 700.086 163.906C697.945 161.516 696.875 158.336 696.875 154.367V154.086ZM702.57 154.578C702.57 157.188 703.109 159.234 704.188 160.719C705.266 162.188 706.766 162.922 708.688 162.922C710.609 162.922 712.102 162.172 713.164 160.672C714.242 159.172 714.781 156.977 714.781 154.086C714.781 151.523 714.227 149.492 713.117 147.992C712.023 146.492 710.531 145.742 708.641 145.742C706.781 145.742 705.305 146.484 704.211 147.969C703.117 149.438 702.57 151.641 702.57 154.578ZM214.02 223H208.114V188.875H214.02V223ZM226.742 199L223.836 197.195C225.242 195.148 225.969 192.984 226.016 190.703V187H231.008V190.234C231.008 191.844 230.594 193.469 229.766 195.109C228.953 196.734 227.945 198.031 226.742 199ZM245.652 197.641L245.816 200.289C247.597 198.211 250.034 197.172 253.128 197.172C256.519 197.172 258.839 198.469 260.089 201.062C261.933 198.469 264.527 197.172 267.87 197.172C270.667 197.172 272.745 197.945 274.105 199.492C275.48 201.039 276.183 203.32 276.214 206.336V223H270.519V206.5C270.519 204.891 270.167 203.711 269.464 202.961C268.761 202.211 267.597 201.836 265.972 201.836C264.675 201.836 263.613 202.188 262.784 202.891C261.972 203.578 261.402 204.484 261.073 205.609L261.097 223H255.402V206.312C255.323 203.328 253.8 201.836 250.831 201.836C248.55 201.836 246.933 202.766 245.98 204.625V223H240.284V197.641H245.652ZM318.767 223C318.517 222.516 318.298 221.727 318.111 220.633C316.298 222.523 314.08 223.469 311.455 223.469C308.908 223.469 306.83 222.742 305.22 221.289C303.611 219.836 302.806 218.039 302.806 215.898C302.806 213.195 303.806 211.125 305.806 209.688C307.822 208.234 310.697 207.508 314.431 207.508H317.923V205.844C317.923 204.531 317.556 203.484 316.822 202.703C316.088 201.906 314.97 201.508 313.47 201.508C312.173 201.508 311.111 201.836 310.283 202.492C309.455 203.133 309.041 203.953 309.041 204.953H303.345C303.345 203.562 303.806 202.266 304.728 201.062C305.65 199.844 306.9 198.891 308.478 198.203C310.072 197.516 311.845 197.172 313.798 197.172C316.767 197.172 319.134 197.922 320.9 199.422C322.666 200.906 323.572 203 323.619 205.703V217.141C323.619 219.422 323.939 221.242 324.58 222.602V223H318.767ZM312.509 218.898C313.634 218.898 314.689 218.625 315.673 218.078C316.673 217.531 317.423 216.797 317.923 215.875V211.094H314.853C312.744 211.094 311.158 211.461 310.095 212.195C309.033 212.93 308.502 213.969 308.502 215.312C308.502 216.406 308.861 217.281 309.58 217.938C310.314 218.578 311.291 218.898 312.509 218.898ZM370.789 215.055H357.57L354.805 223H348.641L361.531 188.875H366.852L379.766 223H373.578L370.789 215.055ZM359.234 210.273H369.125L364.18 196.117L359.234 210.273ZM392.066 197.641L392.23 200.57C394.105 198.305 396.566 197.172 399.613 197.172C404.894 197.172 407.581 200.195 407.675 206.242V223H401.98V206.57C401.98 204.961 401.628 203.773 400.925 203.008C400.238 202.227 399.105 201.836 397.527 201.836C395.23 201.836 393.519 202.875 392.394 204.953V223H386.698V197.641H392.066ZM417.233 210.133C417.233 206.227 418.139 203.094 419.952 200.734C421.764 198.359 424.194 197.172 427.241 197.172C429.928 197.172 432.1 198.109 433.756 199.984V187H439.452V223H434.295L434.014 220.375C432.311 222.438 430.038 223.469 427.194 223.469C424.225 223.469 421.819 222.273 419.975 219.883C418.147 217.492 417.233 214.242 417.233 210.133ZM422.928 210.625C422.928 213.203 423.42 215.219 424.405 216.672C425.405 218.109 426.819 218.828 428.647 218.828C430.975 218.828 432.678 217.789 433.756 215.711V204.883C432.709 202.852 431.022 201.836 428.694 201.836C426.85 201.836 425.428 202.57 424.428 204.039C423.428 205.492 422.928 207.688 422.928 210.625ZM463.47 202.844C462.72 202.719 461.947 202.656 461.15 202.656C458.541 202.656 456.783 203.656 455.877 205.656V223H450.181V197.641H455.619L455.759 200.477C457.134 198.273 459.041 197.172 461.478 197.172C462.291 197.172 462.963 197.281 463.494 197.5L463.47 202.844ZM469.958 210.086C469.958 207.602 470.45 205.367 471.434 203.383C472.419 201.383 473.802 199.852 475.583 198.789C477.364 197.711 479.411 197.172 481.723 197.172C485.145 197.172 487.919 198.273 490.044 200.477C492.184 202.68 493.341 205.602 493.513 209.242L493.536 210.578C493.536 213.078 493.052 215.312 492.083 217.281C491.13 219.25 489.755 220.773 487.958 221.852C486.177 222.93 484.114 223.469 481.77 223.469C478.192 223.469 475.325 222.281 473.169 219.906C471.028 217.516 469.958 214.336 469.958 210.367V210.086ZM475.653 210.578C475.653 213.188 476.192 215.234 477.27 216.719C478.348 218.188 479.848 218.922 481.77 218.922C483.692 218.922 485.184 218.172 486.247 216.672C487.325 215.172 487.864 212.977 487.864 210.086C487.864 207.523 487.309 205.492 486.2 203.992C485.106 202.492 483.614 201.742 481.723 201.742C479.864 201.742 478.388 202.484 477.294 203.969C476.2 205.438 475.653 207.641 475.653 210.578ZM509.211 223H503.516V197.641H509.211V223ZM503.164 191.055C503.164 190.18 503.438 189.453 503.984 188.875C504.547 188.297 505.344 188.008 506.375 188.008C507.406 188.008 508.203 188.297 508.766 188.875C509.328 189.453 509.609 190.18 509.609 191.055C509.609 191.914 509.328 192.633 508.766 193.211C508.203 193.773 507.406 194.055 506.375 194.055C505.344 194.055 504.547 193.773 503.984 193.211C503.438 192.633 503.164 191.914 503.164 191.055ZM519.167 210.133C519.167 206.227 520.073 203.094 521.886 200.734C523.698 198.359 526.128 197.172 529.175 197.172C531.863 197.172 534.034 198.109 535.691 199.984V187H541.386V223H536.23L535.948 220.375C534.245 222.438 531.972 223.469 529.128 223.469C526.159 223.469 523.753 222.273 521.909 219.883C520.081 217.492 519.167 214.242 519.167 210.133ZM524.863 210.625C524.863 213.203 525.355 215.219 526.339 216.672C527.339 218.109 528.753 218.828 530.581 218.828C532.909 218.828 534.613 217.789 535.691 215.711V204.883C534.644 202.852 532.956 201.836 530.628 201.836C528.784 201.836 527.363 202.57 526.363 204.039C525.363 205.492 524.863 207.688 524.863 210.625ZM569.431 223V188.875H579.509C582.525 188.875 585.197 189.547 587.525 190.891C589.869 192.234 591.681 194.141 592.963 196.609C594.244 199.078 594.884 201.906 594.884 205.094V206.805C594.884 210.039 594.236 212.883 592.939 215.336C591.658 217.789 589.822 219.68 587.431 221.008C585.056 222.336 582.33 223 579.252 223H569.431ZM575.361 193.656V218.266H579.228C582.338 218.266 584.72 217.297 586.377 215.359C588.048 213.406 588.9 210.609 588.931 206.969V205.07C588.931 201.367 588.127 198.539 586.517 196.586C584.908 194.633 582.572 193.656 579.509 193.656H575.361ZM616.208 223.469C612.598 223.469 609.669 222.336 607.419 220.07C605.184 217.789 604.067 214.758 604.067 210.977V210.273C604.067 207.742 604.552 205.484 605.52 203.5C606.505 201.5 607.88 199.945 609.645 198.836C611.411 197.727 613.38 197.172 615.552 197.172C619.005 197.172 621.669 198.273 623.544 200.477C625.434 202.68 626.38 205.797 626.38 209.828V212.125H609.809C609.981 214.219 610.677 215.875 611.895 217.094C613.13 218.312 614.677 218.922 616.536 218.922C619.145 218.922 621.27 217.867 622.911 215.758L625.981 218.688C624.966 220.203 623.606 221.383 621.903 222.227C620.216 223.055 618.317 223.469 616.208 223.469ZM615.528 201.742C613.966 201.742 612.7 202.289 611.731 203.383C610.778 204.477 610.169 206 609.903 207.953H620.755V207.531C620.63 205.625 620.122 204.188 619.231 203.219C618.341 202.234 617.106 201.742 615.528 201.742ZM644.234 215.781L649.602 197.641H655.484L646.695 223H641.75L632.891 197.641H638.797L644.234 215.781ZM674.698 223.469C671.089 223.469 668.159 222.336 665.909 220.07C663.675 217.789 662.558 214.758 662.558 210.977V210.273C662.558 207.742 663.042 205.484 664.011 203.5C664.995 201.5 666.37 199.945 668.136 198.836C669.902 197.727 671.87 197.172 674.042 197.172C677.495 197.172 680.159 198.273 682.034 200.477C683.925 202.68 684.87 205.797 684.87 209.828V212.125H668.3C668.472 214.219 669.167 215.875 670.386 217.094C671.62 218.312 673.167 218.922 675.027 218.922C677.636 218.922 679.761 217.867 681.402 215.758L684.472 218.688C683.456 220.203 682.097 221.383 680.394 222.227C678.706 223.055 676.808 223.469 674.698 223.469ZM674.019 201.742C672.456 201.742 671.191 202.289 670.222 203.383C669.269 204.477 668.659 206 668.394 207.953H679.245V207.531C679.12 205.625 678.613 204.188 677.722 203.219C676.831 202.234 675.597 201.742 674.019 201.742ZM700.17 223H694.475V187H700.17V223ZM710.127 210.086C710.127 207.602 710.619 205.367 711.603 203.383C712.588 201.383 713.97 199.852 715.752 198.789C717.533 197.711 719.58 197.172 721.892 197.172C725.314 197.172 728.088 198.273 730.213 200.477C732.353 202.68 733.509 205.602 733.681 209.242L733.705 210.578C733.705 213.078 733.22 215.312 732.252 217.281C731.298 219.25 729.923 220.773 728.127 221.852C726.345 222.93 724.283 223.469 721.939 223.469C718.361 223.469 715.494 222.281 713.338 219.906C711.197 217.516 710.127 214.336 710.127 210.367V210.086ZM715.822 210.578C715.822 213.188 716.361 215.234 717.439 216.719C718.517 218.188 720.017 218.922 721.939 218.922C723.861 218.922 725.353 218.172 726.416 216.672C727.494 215.172 728.033 212.977 728.033 210.086C728.033 207.523 727.478 205.492 726.369 203.992C725.275 202.492 723.783 201.742 721.892 201.742C720.033 201.742 718.556 202.484 717.463 203.969C716.369 205.438 715.822 207.641 715.822 210.578ZM765.528 210.578C765.528 214.5 764.638 217.633 762.856 219.977C761.075 222.305 758.684 223.469 755.684 223.469C752.903 223.469 750.677 222.555 749.005 220.727V232.75H743.309V197.641H748.559L748.794 200.219C750.466 198.188 752.739 197.172 755.614 197.172C758.708 197.172 761.13 198.328 762.88 200.641C764.645 202.938 765.528 206.133 765.528 210.227V210.578ZM759.856 210.086C759.856 207.555 759.348 205.547 758.333 204.062C757.333 202.578 755.895 201.836 754.02 201.836C751.692 201.836 750.02 202.797 749.005 204.719V215.969C750.036 217.938 751.723 218.922 754.067 218.922C755.88 218.922 757.294 218.195 758.309 216.742C759.341 215.273 759.856 213.055 759.856 210.086ZM786.336 223.469C782.727 223.469 779.797 222.336 777.547 220.07C775.312 217.789 774.195 214.758 774.195 210.977V210.273C774.195 207.742 774.68 205.484 775.648 203.5C776.633 201.5 778.008 199.945 779.773 198.836C781.539 197.727 783.508 197.172 785.68 197.172C789.133 197.172 791.797 198.273 793.672 200.477C795.562 202.68 796.508 205.797 796.508 209.828V212.125H779.938C780.109 214.219 780.805 215.875 782.023 217.094C783.258 218.312 784.805 218.922 786.664 218.922C789.273 218.922 791.398 217.867 793.039 215.758L796.109 218.688C795.094 220.203 793.734 221.383 792.031 222.227C790.344 223.055 788.445 223.469 786.336 223.469ZM785.656 201.742C784.094 201.742 782.828 202.289 781.859 203.383C780.906 204.477 780.297 206 780.031 207.953H790.883V207.531C790.758 205.625 790.25 204.188 789.359 203.219C788.469 202.234 787.234 201.742 785.656 201.742ZM819.027 202.844C818.277 202.719 817.503 202.656 816.706 202.656C814.097 202.656 812.339 203.656 811.433 205.656V223H805.737V197.641H811.175L811.316 200.477C812.691 198.273 814.597 197.172 817.034 197.172C817.847 197.172 818.519 197.281 819.05 197.5L819.027 202.844Z" fill="white"/>
<g clip-path="url(#clip1)">
<path d="M878.8 298.212C880.693 296.798 881.947 294.691 882.287 292.354C882.627 290.018 882.024 287.643 880.612 285.752C879.2 283.861 877.093 282.609 874.756 282.272C872.419 281.935 870.043 282.54 868.15 283.953L868.023 284.048C867.12 284.722 866.365 285.575 865.805 286.554C865.246 287.533 864.895 288.616 864.774 289.736C864.491 292.061 865.115 294.405 866.516 296.281C867.917 298.156 869.987 299.42 872.297 299.808C874.47 300.201 876.791 299.732 878.695 298.31L878.835 298.205L878.822 298.215L878.8 298.212ZM956.097 240.476L956.224 240.381C958.129 238.958 959.236 236.866 959.473 234.693C959.756 232.368 959.132 230.024 957.731 228.148C956.33 226.273 954.26 225.009 951.95 224.621C950.838 224.417 949.696 224.444 948.595 224.702C947.494 224.96 946.458 225.443 945.551 226.119L945.412 226.224L945.424 226.214C943.532 227.628 942.278 229.735 941.938 232.072C941.598 234.408 942.201 236.783 943.613 238.674C945.025 240.565 947.132 241.816 949.469 242.154C951.806 242.491 954.182 241.886 956.075 240.472L956.097 240.476ZM832.53 385.223C842.867 377.581 857.425 379.671 865.148 389.93L924.178 468.959C927.968 474.033 929.338 480.184 928.48 486.002C928.11 488.989 927.139 491.87 925.624 494.472C924.11 497.074 922.084 499.343 919.669 501.141L919.275 501.435L919.3 501.416L919.199 501.492C914.221 505.21 907.972 506.801 901.826 505.914C895.68 505.027 890.14 501.735 886.426 496.763L827.585 417.987L827.386 417.721C823.596 412.647 822.284 406.493 823.23 400.687C824.011 394.847 827.057 389.311 832.162 385.498L832.53 385.223L832.518 385.232L832.53 385.223ZM1029.26 243.69L1120.56 365.912C1124.62 371.354 1126.06 377.968 1125.07 384.198C1124.67 387.392 1123.62 390.472 1122 393.254C1120.37 396.036 1118.21 398.462 1115.62 400.387L1115.33 400.606L1115.34 400.596L1101.6 410.859L1132.63 452.391C1136.36 457.39 1137.95 463.67 1137.05 469.848C1136.16 476.026 1132.84 481.598 1127.84 485.336C1122.83 489.074 1116.55 490.673 1110.37 489.781C1104.19 488.889 1098.62 485.58 1094.88 480.58L1063.86 439.049L1038.59 457.924L1069.69 499.557C1077.42 509.908 1075.29 524.585 1064.93 532.325L1064.56 532.6C1059.48 536.394 1053.32 537.713 1047.52 536.773C1044.51 536.382 1041.61 535.392 1039 533.862C1036.39 532.332 1034.11 530.292 1032.3 527.865L1032.03 527.51L1032.04 527.522L1000.84 486.123L987.176 496.329C976.128 504.582 960.474 502.322 952.23 491.286L952.126 491.146L952.136 491.159L861.117 369.305L1029.26 243.69ZM931.438 201.345C948.838 198.303 966.725 199.863 983.326 205.868L983.744 206.03C999.302 211.524 1013.77 221.784 1024.62 236.308L1024.92 236.714L1024.9 236.689L855.479 363.239L855.185 362.846C844.327 348.309 838.617 331.527 837.717 314.669L837.742 315.046C836.618 297.433 840.142 279.828 847.96 263.995L848.256 263.438L817.345 249.175C816.911 249.054 816.51 248.837 816.171 248.54C815.833 248.243 815.565 247.873 815.389 247.459C815.212 247.045 815.131 246.596 815.151 246.146C815.171 245.695 815.292 245.255 815.505 244.858L815.518 244.849C815.678 244.426 815.927 244.042 816.248 243.724C816.569 243.405 816.955 243.159 817.378 243.001C817.802 242.844 818.255 242.779 818.706 242.811C819.157 242.842 819.596 242.97 819.993 243.186L820.015 243.189L851.262 257.477C858.478 244.518 869.013 232.242 882.334 222.292C895.655 212.343 910.415 205.724 925.644 202.274L924.889 202.482L920.055 168.465C919.957 168.021 919.957 167.562 920.053 167.117C920.149 166.673 920.339 166.254 920.611 165.89C920.883 165.525 921.23 165.224 921.629 165.005C922.028 164.787 922.469 164.657 922.923 164.623L922.91 164.633C923.353 164.536 923.813 164.54 924.254 164.645C924.695 164.75 925.107 164.954 925.458 165.241C925.81 165.528 926.091 165.891 926.283 166.302C926.474 166.713 926.569 167.162 926.562 167.616L931.438 201.345ZM1085.51 225.392L1144.35 304.167C1152.08 314.518 1149.95 329.195 1139.59 336.935L1139.22 337.21C1134.14 341.004 1127.98 342.323 1122.18 341.383C1119.17 340.992 1116.28 340.002 1113.66 338.472C1111.05 336.942 1108.77 334.902 1106.96 332.475L1106.69 332.12L1106.7 332.132L1047.93 253.458L1047.66 253.09C1043.88 248.029 1042.57 241.875 1043.53 236.095C1043.94 233.123 1044.93 230.261 1046.45 227.677C1047.98 225.093 1050 222.838 1052.41 221.045L1052.71 220.817L1052.7 220.827L1053.06 220.561C1058.14 216.767 1064.29 215.392 1070.11 216.243C1075.94 216.97 1081.45 219.962 1085.24 225.037L1085.5 225.379L1085.49 225.366L1085.51 225.392Z" fill="#99CC33"/>
</g>
</g>
<defs>
<clipPath id="clip0">
<rect width="1024" height="358" fill="white"/>
</clipPath>
<clipPath id="clip1">
<rect width="317" height="380" fill="white" transform="translate(740 300.702) rotate(-36.7576)"/>
</clipPath>
</defs>
</svg>
