<svg width="26" height="26" viewBox="0 0 26 26" fill="none" xmlns="http://www.w3.org/2000/svg">
<path d="M18.993 16.3648C18.7047 16.3647 18.4282 16.25 18.2244 16.046C18.0207 15.8421 17.9063 15.5655 17.9064 15.2772C17.9066 14.9888 18.0212 14.7124 18.2252 14.5086C18.4292 14.3048 18.7058 14.1904 18.9941 14.1906C19.2824 14.1906 19.5589 14.3051 19.7628 14.509C19.9667 14.7129 20.0812 14.9894 20.0812 15.2777C20.0812 15.566 19.9667 15.8425 19.7628 16.0464C19.5589 16.2503 19.2824 16.3648 18.9941 16.3648H18.993ZM7.02867 16.3648C6.8859 16.3648 6.74455 16.3366 6.61268 16.2819C6.48081 16.2272 6.36101 16.147 6.26011 16.046C6.05634 15.8421 5.94194 15.5655 5.94208 15.2772C5.94223 14.9888 6.0569 14.7124 6.26088 14.5086C6.46486 14.3048 6.74143 14.1904 7.02975 14.1906C7.31807 14.1906 7.59459 14.3051 7.79846 14.509C8.00234 14.7129 8.11688 14.9894 8.11688 15.2777C8.11688 15.566 8.00234 15.8425 7.79846 16.0464C7.59459 16.2503 7.31807 16.3648 7.02975 16.3648H7.02867ZM19.3787 9.84533L21.5518 6.09808C21.6103 5.9945 21.6252 5.87194 21.5933 5.75736C21.5614 5.64277 21.4853 5.54555 21.3818 5.48708C21.2782 5.42861 21.1556 5.41368 21.041 5.44558C20.9264 5.47748 20.8292 5.55359 20.7708 5.65717L18.5748 9.44883C16.8309 8.65169 14.9348 8.24218 13.0173 8.2485C11.0132 8.2485 9.12275 8.67966 7.44792 9.438L5.252 5.64633C5.22305 5.59512 5.18429 5.5501 5.13795 5.51387C5.0916 5.47763 5.03857 5.45087 4.98188 5.43513C4.9252 5.41939 4.86597 5.41496 4.80757 5.42211C4.74917 5.42926 4.69276 5.44784 4.64154 5.47679C4.59033 5.50574 4.54531 5.5445 4.50908 5.59084C4.47284 5.63719 4.44608 5.69022 4.43034 5.74691C4.4146 5.80359 4.41017 5.86282 4.41732 5.92122C4.42447 5.97962 4.44305 6.03603 4.472 6.08725L6.63325 9.83341C2.92067 11.8592 0.37375 15.6184 0 20.0666H26C25.6382 15.6292 23.1021 11.8712 19.3787 9.84533V9.84533Z" fill="#30D780"/>
</svg>
