<svg width="62" height="26" viewBox="0 0 62 26" fill="none" xmlns="http://www.w3.org/2000/svg">
<g clip-path="url(#clip0)">
<path d="M36.8295 8.95892C35.482 8.95892 34.4786 9.62048 34.4786 11.2127C34.4786 12.4123 35.14 13.2453 36.7568 13.2453C38.1273 13.2453 39.0583 12.4376 39.0583 11.1629C39.0583 9.71846 38.2253 8.95892 36.8295 8.95892V8.95892ZM34.1356 20.2018C33.8166 20.593 33.4988 21.009 33.4988 21.4993C33.4988 22.4784 34.7473 22.7731 36.4623 22.7731C37.8827 22.7731 39.8178 22.6734 39.8178 21.3527C39.8178 20.5677 38.8868 20.5193 37.7106 20.4456L34.1356 20.2018V20.2018ZM41.385 9.03283C41.8251 9.59616 42.2912 10.3803 42.2912 11.5067C42.2912 14.2251 40.1604 15.8169 37.075 15.8169C36.2905 15.8169 35.5803 15.7192 35.14 15.5969L34.3313 16.8945L36.7313 17.0413C40.9688 17.3114 43.466 17.4342 43.466 20.6902C43.466 23.5074 40.9931 25.0984 36.7313 25.0984C32.2985 25.0984 30.6085 23.9718 30.6085 22.0372C30.6085 20.935 31.0984 20.3484 31.9557 19.5388C31.1473 19.1971 30.8781 18.5852 30.8781 17.9234C30.8781 17.3841 31.1473 16.8947 31.5888 16.4289C32.0293 15.9642 32.519 15.4984 33.1069 14.9596C31.907 14.3717 31.0004 13.0982 31.0004 11.2854C31.0004 8.4695 32.8621 6.53539 36.6085 6.53539C37.662 6.53539 38.299 6.63216 38.8623 6.78022H43.6386V8.86118L41.385 9.03283V9.03283Z" fill="#2F2707"/>
<path d="M47.9474 4.58226C46.5511 4.58226 45.7429 3.77337 45.7429 2.37684C45.7429 0.982224 46.5508 0.222206 47.9474 0.222206C49.3677 0.222206 50.1762 0.982224 50.1762 2.37684C50.1762 3.77337 49.368 4.58226 47.9474 4.58226ZM44.7874 19.3004V17.3666L46.0369 17.1956C46.3799 17.1463 46.4285 17.0731 46.4285 16.705V9.50444C46.4285 9.23578 46.3554 9.06341 46.1096 8.9907L44.7874 8.52487L45.0566 6.54165H50.1268V16.705C50.1268 17.0974 50.1504 17.1463 50.519 17.1959L51.7679 17.3668V19.3004H44.7874V19.3004Z" fill="#2F2707"/>
<path d="M61.4532 18.3509C60.3997 18.8649 58.8568 19.3303 57.4602 19.3303C54.5458 19.3303 53.4442 18.1559 53.4442 15.3869V8.97096C53.4442 8.82411 53.4442 8.72613 53.2475 8.72613H51.5334V6.54574C53.6893 6.30019 54.5458 5.22263 54.8152 2.55305H57.1422V6.03176C57.1422 6.20269 57.1422 6.27659 57.3384 6.27659H60.7914V8.72565H57.1422V14.5788C57.1422 16.0237 57.4855 16.5866 58.8074 16.5866C59.494 16.5866 60.2035 16.4156 60.7911 16.1951L61.4532 18.3507" fill="#2F2707"/>
<path d="M25.1644 11.9239L13.9661 0.726319C13.8128 0.572911 13.6307 0.451218 13.4303 0.368192C13.2299 0.285165 13.0151 0.242432 12.7982 0.242432C12.5812 0.242432 12.3664 0.285165 12.166 0.368192C11.9656 0.451218 11.7836 0.572911 11.6302 0.726319L9.30489 3.05187L12.2547 6.00143C12.6014 5.88351 12.9742 5.86505 13.3309 5.94815C13.6876 6.03125 14.0139 6.21258 14.2728 6.4716C14.5331 6.73225 14.7149 7.06086 14.7973 7.4199C14.8797 7.77894 14.8595 8.15392 14.7389 8.502L17.5813 11.3449C18.2691 11.108 19.0628 11.2614 19.612 11.8115C19.7945 11.9939 19.9394 12.2106 20.0382 12.449C20.137 12.6875 20.1878 12.943 20.1878 13.2011C20.1878 13.4593 20.137 13.7148 20.0382 13.9533C19.9394 14.1917 19.7945 14.4084 19.612 14.5908C19.2908 14.9123 18.8681 15.1126 18.4158 15.1575C17.9636 15.2024 17.5097 15.0892 17.1316 14.8372C16.7534 14.5851 16.4743 14.2098 16.3417 13.7751C16.2091 13.3405 16.2312 12.8732 16.4043 12.453L13.7533 9.802L13.7531 16.7787C13.9452 16.8737 14.1208 16.9992 14.2728 17.1504C14.4554 17.3329 14.6002 17.5496 14.699 17.7881C14.7978 18.0265 14.8486 18.2822 14.8486 18.5403C14.8486 18.7984 14.7978 19.054 14.699 19.2925C14.6002 19.531 14.4554 19.7477 14.2728 19.9302C13.5049 20.6982 12.2602 20.6982 11.4935 19.9302C11.2644 19.7013 11.0954 19.4193 11.0016 19.1094C10.9078 18.7995 10.892 18.4711 10.9556 18.1536C11.0193 17.8361 11.1604 17.5392 11.3665 17.2894C11.5725 17.0396 11.8371 16.8445 12.1367 16.7216V9.67995C11.8957 9.58153 11.6769 9.43563 11.4935 9.25095C10.9118 8.67004 10.772 7.81662 11.07 7.10234L8.16233 4.19419L0.484148 11.8719C0.330718 12.0253 0.209009 12.2075 0.125973 12.4079C0.0429367 12.6084 0.000198364 12.8232 0.000198364 13.0402C0.000198364 13.2572 0.0429367 13.472 0.125973 13.6725C0.209009 13.873 0.330718 14.0551 0.484148 14.2085L11.6824 25.4063C11.9922 25.716 12.4123 25.89 12.8504 25.89C13.2884 25.89 13.7086 25.716 14.0184 25.4063L25.1644 14.2608C25.4742 13.9508 25.6482 13.5305 25.6482 13.0923C25.6482 12.6541 25.4742 12.2338 25.1644 11.9239" fill="#DE4C36"/>
</g>
<defs>
<clipPath id="clip0">
<rect width="61.6296" height="26" fill="white"/>
</clipPath>
</defs>
</svg>
