<svg width="36" height="26" viewBox="0 0 36 26" fill="none" xmlns="http://www.w3.org/2000/svg">
<g clip-path="url(#clip0)">
<path d="M35.2358 9.90769C34.4255 9.34552 32.5689 9.13471 31.1174 9.41579C30.9487 8.01039 30.1722 6.7808 28.8219 5.69161L28.0456 5.12945L27.5053 5.93756C26.8303 6.99161 26.4927 8.46729 26.5939 9.87269C26.6276 10.3644 26.7964 11.2428 27.3028 12.0158C26.8303 12.2969 25.8513 12.6482 24.5686 12.6482H0.162317L0.0948572 12.9293C-0.141532 14.3346 -0.141532 18.7263 2.62655 22.0992C4.71948 24.6639 7.82515 25.9639 11.9097 25.9639C20.7539 25.9639 27.3028 21.7125 30.3747 14.0184C31.59 14.0535 34.1893 14.0184 35.5059 11.3832C35.5396 11.313 35.6071 11.1724 35.8433 10.6455L35.9784 10.3644L35.2358 9.90769ZM19.6737 0H15.9606V3.51337H19.6737V0ZM19.6737 4.21608H15.9606V7.72945H19.6737V4.21594V4.21608ZM15.2853 4.21608H11.5722V7.72945H15.2853V4.21594V4.21608ZM10.8969 4.21608H7.18372V7.72945H10.8969V4.21594V4.21608ZM6.50857 8.43215H2.79534V11.9455H6.50843V8.43201L6.50857 8.43215ZM10.8969 8.43215H7.18372V11.9455H10.8969V8.43201V8.43215ZM15.2853 8.43215H11.5722V11.9455H15.2853V8.43201V8.43215ZM19.6738 8.43215H15.9605V11.9455H19.6738V8.43201V8.43215ZM24.0622 8.43215H20.3489V11.9455H24.0622V8.43201V8.43215Z" fill="#2396ED"/>
</g>
<defs>
<clipPath id="clip0">
<rect width="35.9784" height="26" fill="white"/>
</clipPath>
</defs>
</svg>
