<svg width="20" height="26" viewBox="0 0 20 26" fill="none" xmlns="http://www.w3.org/2000/svg">
<g clip-path="url(#clip0)">
<path d="M6.2035 20.0991C6.2035 20.0991 5.21174 20.6759 6.90934 20.871C8.96597 21.1056 10.017 21.072 12.2834 20.643C12.2834 20.643 12.8793 21.0166 13.7114 21.3403C8.63082 23.5177 2.21288 21.2141 6.2035 20.0991" fill="#5382A1"/>
<path d="M5.58263 17.2576C5.58263 17.2576 4.47027 18.081 6.16913 18.2567C8.36606 18.4834 10.101 18.5019 13.1032 17.9238C13.1032 17.9238 13.5184 18.3448 14.1713 18.575C8.02851 20.3713 1.18653 18.7167 5.58263 17.2576" fill="#5382A1"/>
<path d="M10.8165 12.4375C12.0684 13.8788 10.4876 15.1758 10.4876 15.1758C10.4876 15.1758 13.6662 13.5349 12.2064 11.48C10.843 9.56379 9.79735 8.61156 15.4578 5.3288C15.4578 5.3288 6.57282 7.54781 10.8165 12.4375" fill="#E76F00"/>
<path d="M17.536 22.2008C17.536 22.2008 18.2699 22.8055 16.7277 23.2734C13.7951 24.1618 4.5218 24.4301 1.9457 23.3088C1.0197 22.906 2.75628 22.3469 3.30251 22.2295C3.87218 22.106 4.19778 22.1291 4.19778 22.1291C3.16793 21.4036 -2.45874 23.5536 1.33974 24.1692C11.6986 25.8492 20.2229 23.4128 17.536 22.2008Z" fill="#5382A1"/>
<path d="M6.68035 14.3135C6.68035 14.3135 1.96346 15.4339 5.01004 15.8407C6.29636 16.0129 8.86067 15.974 11.2493 15.7738C13.2014 15.6092 15.1615 15.2591 15.1615 15.2591C15.1615 15.2591 14.4732 15.5539 13.9752 15.8939C9.18522 17.1537 -0.0682254 16.5676 2.59572 15.279C4.84863 14.19 6.68043 14.3135 6.68043 14.3135" fill="#5382A1"/>
<path d="M15.1421 19.0433C20.0114 16.513 17.76 14.0815 16.1886 14.4091C15.8034 14.4892 15.6317 14.5586 15.6317 14.5586C15.6317 14.5586 15.7747 14.3347 16.0478 14.2378C19.1565 13.1448 21.5474 17.4613 15.0443 19.1708C15.0443 19.1709 15.1196 19.1035 15.1421 19.0433" fill="#5382A1"/>
<path d="M12.2064 0.0278919C12.2064 0.0278919 14.9031 2.72558 9.64871 6.87363C5.43529 10.2012 8.68792 12.0984 9.64699 14.2661C7.18751 12.0471 5.38254 10.0936 6.59349 8.2756C8.37073 5.6067 13.2944 4.31278 12.2064 0.0278168" fill="#E76F00"/>
<path d="M7.15889 25.8997C11.8328 26.1989 19.0101 25.7337 19.1801 23.5221C19.1801 23.5221 18.8533 24.3606 15.3173 25.0264C11.3281 25.777 6.40789 25.6894 3.48965 25.2083C3.48973 25.2083 4.08705 25.7027 7.15896 25.8997" fill="#5382A1"/>
</g>
<defs>
<clipPath id="clip0">
<rect width="19.237" height="26" fill="white"/>
</clipPath>
</defs>
</svg>
